<?xml version="1.0" standalone="no"?>
<!DOCTYPE svg PUBLIC "-//W3C//DTD SVG 20010904//EN"
 "http://www.w3.org/TR/2001/REC-SVG-20010904/DTD/svg10.dtd">
<svg version="1.0" xmlns="http://www.w3.org/2000/svg"
 width="16.000000pt" height="16.000000pt" viewBox="0 0 16.000000 16.000000"
 preserveAspectRatio="xMidYMid meet">
<metadata>
Created by potrace 1.11, written by Peter Selinger 2001-2013
</metadata>
<g transform="translate(0.000000,16.000000) scale(0.003119,-0.003119)"
fill="#000000" stroke="none">
<path d="M0 2570 l0 -2560 2565 0 2565 0 0 2560 0 2560 -2565 0 -2565 0 0
-2560z m2675 790 c370 -53 652 -349 684 -718 l6 -74 130 -33 c72 -18 181 -52
244 -74 l115 -40 42 39 c161 148 406 141 555 -17 27 -29 62 -79 77 -110 24
-52 27 -70 27 -163 0 -93 -3 -111 -27 -163 -76 -163 -256 -259 -426 -228 -209
39 -340 207 -331 425 l4 81 -80 28 c-109 39 -327 98 -340 93 -6 -2 -17 -28
-23 -57 -19 -81 -86 -209 -151 -286 -280 -334 -755 -386 -1105 -122 -124 95
-245 276 -278 418 l-11 51 -36 -6 c-51 -10 -287 -79 -345 -102 l-49 -19 -1
-109 c-1 -96 -4 -116 -28 -167 -96 -205 -341 -292 -540 -191 -208 105 -281
370 -156 566 132 209 429 247 603 78 l40 -39 130 44 c72 25 182 58 245 73
l115 29 7 72 c47 459 455 785 903 721z"/>
<path d="M2402 3190 c-221 -59 -398 -238 -458 -461 -36 -135 -17 -314 46 -438
121 -240 349 -373 614 -358 165 9 295 67 411 182 77 77 124 150 156 240 120
341 -58 702 -408 826 -87 31 -264 36 -361 9z m291 -329 c161 -69 234 -266 159
-426 -55 -115 -154 -178 -282 -179 -67 -1 -84 3 -143 32 -143 71 -208 223
-162 379 51 173 258 267 428 194z"/>
<path d="M859 2383 c-66 -34 -113 -94 -128 -163 -48 -225 232 -386 397 -227
54 52 76 103 76 177 0 183 -182 295 -345 213z"/>
<path d="M4059 2383 c-178 -91 -178 -335 0 -425 163 -83 345 29 345 212 0 183
-182 295 -345 213z"/>
</g>
</svg>
